<svg width="20" height="24" viewBox="0 0 20 24" fill="none" xmlns="http://www.w3.org/2000/svg">
<path id="Vector" d="M7.94003 1.4997C8.10604 1.0566 8.39081 0.67713 8.75782 0.409938C9.12483 0.142745 9.55737 0 10 0C10.4426 0 10.8752 0.142745 11.2422 0.409938C11.6092 0.67713 11.894 1.0566 12.06 1.4997C13.703 1.98766 15.1523 3.0446 16.1852 4.50818C17.2181 5.97176 17.7776 7.76105 17.7776 9.60124V15.2371L19.8132 18.5343C19.9248 18.715 19.9889 18.925 19.9987 19.142C20.0085 19.359 19.9635 19.5748 19.8686 19.7663C19.7737 19.9578 19.6324 20.118 19.4599 20.2296C19.2873 20.3412 19.0899 20.4001 18.8887 20.4001H13.8499C13.7162 21.3997 13.2533 22.3138 12.5463 22.975C11.8392 23.6361 10.9353 24 10 24C9.06473 24 8.16076 23.6361 7.45371 22.975C6.74665 22.3138 6.28384 21.3997 6.15006 20.4001H1.11126C0.910104 20.4001 0.712713 20.3412 0.540147 20.2296C0.367581 20.118 0.226313 19.9578 0.131415 19.7663C0.0365172 19.5748 -0.00845069 19.359 0.0013087 19.142C0.0110681 18.925 0.0751887 18.715 0.18683 18.5343L2.22235 15.2371V9.60124C2.22235 5.73285 4.64453 2.47399 7.94003 1.4997ZM8.42892 20.4001C8.54367 20.7513 8.75645 21.0553 9.03793 21.2704C9.31941 21.4855 9.65574 21.601 10.0006 21.601C10.3454 21.601 10.6817 21.4855 10.9632 21.2704C11.2447 21.0553 11.4574 20.7513 11.5722 20.4001H8.4278H8.42892ZM10 3.60187C8.5266 3.60187 7.11355 4.23395 6.07169 5.35905C5.02984 6.48415 4.44454 8.01011 4.44454 9.60124V15.6006C4.44459 15.8376 4.37963 16.0693 4.25787 16.2665L3.18789 18.0004H16.811L15.741 16.2665C15.6196 16.0692 15.5551 15.8375 15.5555 15.6006V9.60124C15.5555 8.01011 14.9702 6.48415 13.9283 5.35905C12.8865 4.23395 11.4734 3.60187 10 3.60187Z" fill="#A28D4F"/>
</svg>
